#!OML:ASF H:\Dans Jumps\Project 1\Capture day 1\Session 1\subject.ASF
:FULLY-SPECIFIED
:DEGREES
384
root 0.317682 16.6949 2.70527 -0.309067 2.29747 -0.237398
lowerback 3.72178 -0.387878 0.0119204
upperback 2.81675 -0.522762 2.33036
thorax 0.826177 -0.281556 2.40047
lowerneck -10.6103 -0.706043 -2.87274
upperneck 34.3292 -0.604183 0.8588
head 13.3054 -0.509777 0.763171
rclavicle -8.44835e-015 1.59028e-015
rhumerus -27.7286 -11.9222 -79.6671
rradius 33.6111
rwrist 28.4383
rhand -26.852 -29.876
rfingers 7.12502
rthumb -0.277162 -59.8555
lclavicle -8.44835e-015 1.59028e-015
lhumerus -31.5353 -6.73722 82.9906
lradius 46.6682
lwrist 29.5724
lhand -31.4766 -14.7734
lfingers 7.12502
lthumb -4.74333 15.1535
rfemur -24.4476 -4.71432 17.9882
rtibia 51.6389
rfoot -19.7133 -0.375448
rtoes 0.517252
lfemur -21.5984 6.85991 -18.0396
ltibia 47.167
lfoot -17.6064 7.63327
ltoes -6.38116
385
root 0.321989 16.8109 2.75814 0.0761867 2.24696 -0.126152
lowerback 3.47772 -0.343556 -0.0645522
upperback 2.8435 -0.469258 2.28752
thorax 0.987971 -0.256571 2.39593
lowerneck -10.4329 -0.732334 -2.8269
upperneck 34.3089 -0.658924 0.856717
head 13.2587 -0.527809 0.746697
rclavicle -1.32192e-014 2.78299e-014
rhumerus -27.9055 -12.7208 -79.755
rradius 33.6325
rwrist 27.9414
rhand -26.8821 -29.7412
rfingers 7.12502
rthumb -0.306197 -59.7207
lclavicle -1.32192e-014 2.78299e-014
lhumerus -32.0077 -6.55934 83.5586
lradius 47.0949
lwrist 29.4631
lhand -31.5232 -14.7726
lfingers 7.12502
lthumb -4.78834 15.1533
rfemur -23.8127 -4.61359 17.8821
rtibia 49.9852
rfoot -18.9698 -0.191449
rtoes 1.14231
lfemur -20.8673 6.62071 -18.1922
ltibia 45.3184
lfoot -16.7403 7.377
ltoes -5.93512
386
root 0.326171 16.9289 2.80913 0.496299 2.24058 -0.0513342
lowerback 3.22106 -0.31669 -0.112573
upperback 2.84948 -0.437595 2.25139
thorax 1.13625 -0.242006 2.38319
lowerneck -10.2597 -0.764296 -2.76688
upperneck 34.2536 -0.722905 0.847772
head 13.1978 -0.548875 0.723622
rclavicle 9.93923e-017 3.18055e-015
rhumerus -28.0984 -13.482 -79.8142
rradius 33.6043
rwrist 27.4931
rhand -26.868 -29.5177
rfingers 7.12502
rthumb -0.292599 -59.4973
lclavicle 9.93923e-017 3.18055e-015
lhumerus -32.561 -6.37189 84.0895
lradius 47.6147
lwrist 30.0806
lhand -31.5155 -14.8907
lfingers 7.12502
lthumb -4.78095 15.0353
rfemur -23.173 -4.51674 17.818
rtibia 48.236
rfoot -18.1562 -0.0403552
rtoes 1.87611
lfemur -20.2058 6.31368 -18.3074
ltibia 43.4707
lfoot -15.778 7.08265
ltoes -5.4343
387
root 0.330225 17.0461 2.85843 0.967664 2.25331 -0.0180098
lowerback 2.93018 -0.29782 -0.124349
upperback 2.83364 -0.41558 2.22372
thorax 1.28154 -0.231638 2.35909
lowerneck -10.1003 -0.802317 -2.71386
upperneck 34.1682 -0.797742 0.851836
head 13.1274 -0.573896 0.705331
rclavicle -1.22253e-014 2.94201e-014
rhumerus -28.3022 -14.1226 -79.8634
rradius 33.5348
rwrist 27.1738
rhand -26.8028 -29.2235
rfingers 7.12502
rthumb -0.229635 -59.2031
lclavicle -1.22253e-014 2.94201e-014
lhumerus -33.178 -6.22295 84.587
lradius 48.1937
lwrist 31.2979
lhand -31.4011 -15.0902
lfingers 7.12502
lthumb -4.67047 14.8383
rfemur -22.5661 -4.4053 17.8028
rtibia 46.4271
rfoot -17.2965 0.0840228
rtoes 2.74588
lfemur -19.6608 5.97324 -18.3811
ltibia 41.6902
lfoot -14.7515 6.7757
ltoes -4.81988
